# xmcd CD database file
#
# Track frame offsets:
#	150
#	14430
#	25143
#	44687
#	65237
#	83049
#	99861
#	116061
#	149549
#	164961
#
# Disc length: 2309 seconds
#
# Revision: 0
# Processed by: cddbd v1.5.2PL0 Copyright (c) Steve Scherf et al.
# Submitted via: CDex 1.70beta2
#
DISCID=9009030a
DTITLE=Jimmy Joansson - Words Don't Say It All
DYEAR=2008
DGENRE=Blues
TTITLE0=Let Me Introduce Myself
TTITLE1=Done With It
TTITLE2=Winter Ballade
TTITLE3=Gone
TTITLE4=The Last Run
TTITLE5=Crying Ocean
TTITLE6=Friend
TTITLE7=Words Don't Say It All
TTITLE8=5 Years Later
TTITLE9=Until We Meet Again
EXTD=YEAR: 2008
EXTT0=
EXTT1=
EXTT2=
EXTT3=
EXTT4=
EXTT5=
EXTT6=
EXTT7=
EXTT8=
EXTT9=
PLAYORDER=
